<?xml version="1.0" encoding="UTF-8" standalone="no"?>
<!-- Generator: Adobe Illustrator 13.0.2, SVG Export Plug-In . SVG Version: 6.00 Build 14948)  -->

<svg
   xmlns:dc="http://purl.org/dc/elements/1.1/"
   xmlns:cc="http://creativecommons.org/ns#"
   xmlns:rdf="http://www.w3.org/1999/02/22-rdf-syntax-ns#"
   xmlns:svg="http://www.w3.org/2000/svg"
   xmlns="http://www.w3.org/2000/svg"
   xmlns:sodipodi="http://sodipodi.sourceforge.net/DTD/sodipodi-0.dtd"
   xmlns:inkscape="http://www.inkscape.org/namespaces/inkscape"
   id="Layer_1"
   xml:space="preserve"
   height="181.44px"
   viewBox="0 0 176.486 181.437"
   width="176.49px"
   version="1.1"
   y="0px"
   x="0px"
   enable-background="new 0 0 176.486 181.437"
   data-lt-installed="true"
   sodipodi:docname="xmppjs.svg"
   inkscape:version="0.92.2 5c3e80d, 2017-08-06"><metadata
     id="metadata3817"><rdf:RDF><cc:Work
         rdf:about=""><dc:format>image/svg+xml</dc:format><dc:type
           rdf:resource="http://purl.org/dc/dcmitype/StillImage" /><dc:title></dc:title></cc:Work></rdf:RDF></metadata><defs
     id="defs3815" /><sodipodi:namedview
     pagecolor="#ffffff"
     bordercolor="#666666"
     borderopacity="1"
     objecttolerance="10"
     gridtolerance="10"
     guidetolerance="10"
     inkscape:pageopacity="0"
     inkscape:pageshadow="2"
     inkscape:window-width="1447"
     inkscape:window-height="861"
     id="namedview3813"
     showgrid="false"
     inkscape:zoom="3.5383597"
     inkscape:cx="88.245003"
     inkscape:cy="90.720001"
     inkscape:window-x="0"
     inkscape:window-y="0"
     inkscape:window-maximized="0"
     inkscape:current-layer="Layer_1" /><linearGradient
     id="SVGID_1_"
     y2=".00048828"
     gradientUnits="userSpaceOnUse"
     x2="-1807.2"
     gradientTransform="translate(1916)"
     y1="125.86"
     x1="-1807.2"><stop
       stop-color="#1b3967"
       offset=".011"
       id="stop3778" /><stop
       stop-color="#13b5ea"
       offset=".467"
       id="stop3780" /><stop
       stop-color="#002b5c"
       offset=".9945"
       id="stop3782" /></linearGradient><path
     d="m136.29 14.189c0.077 1.313-1.786 0.968-1.786 2.293 0 38.551-44.72 96.831-89.847 108.19v1.182c59.957-5.51 126.73-66.8 128.24-125.85l-36.6 14.189z"
     fill="url(#SVGID_1_)"
     id="path3785" /><path
     d="m120.23 17.96c0.077 1.313 0.121 2.633 0.121 3.958 0 38.551-30.7 90.497-75.827 101.86v1.637c59.065-3.823 105.81-63.023 105.81-109.2 0-2.375-0.125-4.729-0.371-7.056l-29.73 8.796z"
     fill="#E96D1F"
     id="path3787" /><linearGradient
     id="SVGID_2_"
     y2="1.279e-13"
     gradientUnits="userSpaceOnUse"
     x2="-1073.2"
     gradientTransform="matrix(-1 0 0 1 -1008.2 0)"
     y1="126.85"
     x1="-1073.2"><stop
       stop-color="#1b3967"
       offset=".011"
       id="stop3789" /><stop
       stop-color="#13b5ea"
       offset=".467"
       id="stop3791" /><stop
       stop-color="#002b5c"
       offset=".9945"
       id="stop3793" /></linearGradient><path
     d="m150.34 8.76l-7.833 2.625c0.041 0.963 0.191 2.203 0.191 3.173 0 41.219-37.272 98.205-87.274 107.12-3.243 1.089-7.538 2.077-10.93 2.932v1.639c68.344-8.66 111.18-71.719 105.84-117.49z"
     fill="#D9541E"
     id="path3796" /><path
     d="m36.599 14.189c-0.077 1.313 1.787 0.968 1.787 2.293 0 38.551 46.558 97.366 91.688 108.73v1.639c-59.953-5.52-128.56-67.8-130.07-126.85l36.599 14.189z"
     fill="url(#SVGID_2_)"
     id="path3798" /><path
     d="m54.731 18.932c-0.076 1.313-0.12 2.63-0.12 3.957 0 38.551 30.699 90.497 75.827 101.86v1.639c-59.044-2.79-105.81-63.024-105.81-109.2 0-2.375 0.128-4.729 0.371-7.056l29.73 8.798z"
     fill="#A0CE67"
     id="path3800" /><path
     d="m24.713 9.583l7.617 2.722c-0.041 0.962-0.066 2.254-0.066 3.225 0 41.219 37.271 98.204 87.272 107.12 3.245 1.088 7.538 2.077 10.932 2.931v1.638c-65.254-5.56-111.1-71.866-105.76-117.64z"
     fill="#439639"
     id="path3802" /><text
     xml:space="preserve"
     style="font-style:normal;font-weight:normal;font-size:39.74539185px;line-height:1.25;font-family:sans-serif;letter-spacing:0px;word-spacing:0px;fill:#000000;fill-opacity:1;stroke:none;stroke-width:0.99363482"
     x="0.89651763"
     y="169.0524"
     id="text3821"
     transform="scale(0.99365127,1.0063893)"><tspan
       sodipodi:role="line"
       id="tspan3819"
       x="0.89651763"
       y="169.0524"
       style="font-style:normal;font-variant:normal;font-weight:normal;font-stretch:normal;font-family:'Arial Black';-inkscape-font-specification:'Arial Black, ';stroke-width:0.99363482">XMPP.js</tspan></text>
</svg>